<?xml version="1.0" encoding="UTF-8"?>
<svg version="1.1" xmlns="http://www.w3.org/2000/svg" width="555" height="286">
<path d="M0 0 C183.15 0 366.3 0 555 0 C555 94.38 555 188.76 555 286 C371.85 286 188.7 286 0 286 C0 191.62 0 97.24 0 0 Z " fill="#FCFDFD" transform="translate(0,0)"/>
<path d="M0 0 C183.15 0 366.3 0 555 0 C555 94.38 555 188.76 555 286 C371.85 286 188.7 286 0 286 C0 191.62 0 97.24 0 0 Z M8 9 C8 97.44 8 185.88 8 277 C185.21 277 362.42 277 545 277 C545 188.56 545 100.12 545 9 C367.79 9 190.58 9 8 9 Z " fill="#FDFDFD" transform="translate(0,0)"/>
<path d="M0 0 C177.21 0 354.42 0 537 0 C537 88.44 537 176.88 537 268 C359.79 268 182.58 268 0 268 C0 179.56 0 91.12 0 0 Z M7 8 C7 91.49 7 174.98 7 261 C179.26 261 351.52 261 529 261 C529 177.51 529 94.02 529 8 C356.74 8 184.48 8 7 8 Z " fill="#9F9F9F" transform="translate(8,9)"/>
<path d="M0 0 C16.70625 -0.12375 16.70625 -0.12375 33.75 -0.25 C38.98955566 -0.30462402 38.98955566 -0.30462402 44.33496094 -0.36035156 C48.66064453 -0.37841797 48.66064453 -0.37841797 50.69732666 -0.3817749 C52.09435145 -0.38784437 53.49135772 -0.40175805 54.88824463 -0.42230225 C66.02531251 -0.57764795 76.49750536 0.08500086 85.5 7.3125 C91.45029809 13.22560873 93.23325266 17.02662302 93.5 25.4375 C93.34282518 31.79364965 92.38086043 35.67258356 89 41 C88.67 41.99 88.34 42.98 88 44 C88.53109375 44.40089844 89.0621875 44.80179688 89.609375 45.21484375 C94.88746464 49.46235749 98.3938977 53.31295771 100 60 C101.05024416 69.72984821 99.90405729 78.04749899 94.375 86.1875 C88.92882922 92.94129099 82.45026857 96.37251013 74 98 C71.43703368 98.16344665 68.86698579 98.23584584 66.29882812 98.22705078 C65.1971291 98.22741239 65.1971291 98.22741239 64.07317352 98.2277813 C61.72573686 98.2263037 59.37862888 98.21114349 57.03125 98.1953125 C55.56998853 98.19236723 54.10872494 98.19032977 52.64746094 98.18920898 C47.26494151 98.17877775 41.88246743 98.15085525 36.5 98.125 C18.4325 98.063125 18.4325 98.063125 0 98 C0 65.66 0 33.32 0 0 Z " fill="#922520" transform="translate(196,38)"/>
<path d="M0 0 C15.2521875 -0.0928125 15.2521875 -0.0928125 30.8125 -0.1875 C34.00139893 -0.21481201 37.19029785 -0.24212402 40.47583008 -0.27026367 C43.03205996 -0.27903385 45.58829407 -0.28667653 48.14453125 -0.29296875 C49.44853882 -0.30831665 50.75254639 -0.32366455 52.09606934 -0.33947754 C65.40933451 -0.34325507 78.2822267 2.37099147 88.3125 11.6875 C96.85666322 20.81972304 98.51600559 30.86256085 98.265625 42.921875 C97.75699311 53.70287636 92.69092766 60.74236403 85 68 C83.68635327 69.02572416 82.35955482 70.03595204 81 71 C82.63339437 76.93335425 85.61972904 81.99225508 88.625 87.3125 C89.63979298 89.1201 90.65291128 90.92864157 91.6640625 92.73828125 C92.11217285 93.53274658 92.5602832 94.32721191 93.02197266 95.14575195 C94 97 94 97 94 98 C86.08 98 78.16 98 70 98 C68.948125 94.720625 67.89625 91.44125 66.8125 88.0625 C64.91786448 83.68373333 62.91915745 80.78192607 59 78 C47.57606299 74.39073026 33.727673 76.26293388 22 77 C22 83.93 22 90.86 22 98 C14.74 98 7.48 98 0 98 C0 65.66 0 33.32 0 0 Z " fill="#1E566F" transform="translate(419,38)"/>
<path d="M0 0 C9.5143053 6.62405849 16.31426631 16.77754507 19.2578125 28.04296875 C21.71633562 44.22452093 18.74402163 59.29373522 9.375 72.73828125 C2.01840856 82.03619543 -9.81502814 88.62483278 -21.62329102 90.17431641 C-23.96598793 90.30696407 -26.27883024 90.33922323 -28.625 90.30859375 C-29.45386719 90.30029541 -30.28273437 90.29199707 -31.13671875 90.28344727 C-43.63578842 89.94152373 -54.37100939 85.2439981 -63.6015625 76.76953125 C-72.8605788 66.95566753 -77.915532 54.5083942 -77.75 41.05859375 C-77.73755249 39.74483765 -77.73755249 39.74483765 -77.72485352 38.40454102 C-77.37315666 24.85607659 -72.04604279 13.0893879 -62.25 3.62109375 C-44.25978017 -11.42245214 -19.68371939 -12.32795446 0 0 Z " fill="#242125" transform="translate(274.3125,160.12890625)"/>
<path d="M0 0 C29.37 0 58.74 0 89 0 C89 6.6 89 13.2 89 20 C66.89 20 44.78 20 22 20 C22 26.27 22 32.54 22 39 C41.8 39 61.6 39 82 39 C82 45.27 82 51.54 82 58 C62.2 58 42.4 58 22 58 C22 64.6 22 71.2 22 78 C44.77 78 67.54 78 91 78 C91 84.6 91 91.2 91 98 C60.97 98 30.94 98 0 98 C0 65.66 0 33.32 0 0 Z " fill="#9C9C9C" transform="translate(311,38)"/>
<path d="M0 0 C28.05 0 56.1 0 85 0 C85 6.27 85 12.54 85 19 C63.88 19 42.76 19 21 19 C21 24.61 21 30.22 21 36 C40.14 36 59.28 36 79 36 C79 42.6 79 49.2 79 56 C59.86 56 40.72 56 21 56 C21 61.94 21 67.88 21 74 C43.11 74 65.22 74 88 74 C88 80.6 88 87.2 88 94 C58.96 94 29.92 94 0 94 C0 62.98 0 31.96 0 0 Z " fill="#242125" transform="translate(421,154)"/>
<path d="M0 0 C5.94 0 11.88 0 18 0 C18 62.7 18 125.4 18 190 C21.3 190 24.6 190 28 190 C28 196.6 28 203.2 28 210 C12.16 210 -3.68 210 -20 210 C-20 203.4 -20 196.8 -20 190 C-14.72 190 -9.44 190 -4 190 C-4 145.12 -4 100.24 -4 54 C-10.27 54 -16.54 54 -23 54 C-19.37019083 44.35087407 -15.45474333 34.86259407 -11.37890625 25.39526367 C-10.3665559 23.04287856 -9.35881839 20.68855472 -8.3515625 18.33398438 C-7.70079034 16.81759264 -7.04975812 15.30131249 -6.3984375 13.78515625 C-6.10149994 13.09132339 -5.80456238 12.39749054 -5.49862671 11.68263245 C-5.21468048 11.02431931 -4.93073425 10.36600616 -4.63818359 9.68774414 C-4.39345306 9.11850723 -4.14872253 8.54927032 -3.89657593 7.96278381 C-2.66878716 5.27490893 -1.32152462 2.64304925 0 0 Z " fill="#F7C910" transform="translate(160,38)"/>
<path d="M0 0 C20 0 20 0 27.3125 6.5 C29.13891602 8.62597656 29.13891602 8.62597656 30.37890625 10.390625 C32.37702342 13.15124694 34.4517499 15.72765748 36.75 18.25 C37.27078125 18.85328125 37.7915625 19.4565625 38.328125 20.078125 C40.35758073 22.41105074 42.427647 24.70511245 44.5 27 C47.76390848 30.61676345 50.98790949 34.26389608 54.1875 37.9375 C56.27211164 40.30964429 58.38428644 42.65556065 60.5 45 C70.91116751 56.54822335 70.91116751 56.54822335 75 62 C75.33 41.54 75.66 21.08 76 0 C82.93 0 89.86 0 97 0 C97 31.02 97 62.04 97 94 C76 94 76 94 70.75 89.6875 C69.45267241 87.82373361 68.20213863 85.9265375 67 84 C65.62891734 82.25114312 64.23211362 80.52219741 62.8125 78.8125 C62.07902344 77.905 61.34554687 76.9975 60.58984375 76.0625 C56.37231552 70.98187328 51.75727337 66.24818689 47.23046875 61.4453125 C44.29093266 58.32357723 41.43816007 55.14028695 38.640625 51.890625 C36.60430765 49.54401167 34.52126255 47.24205859 32.4375 44.9375 C30.95732199 43.29257615 29.4780976 41.64679352 28 40 C27.3709375 39.30003906 26.741875 38.60007813 26.09375 37.87890625 C22 33.23481722 22 33.23481722 22 31 C21.34 31 20.68 31 20 31 C20 51.79 20 72.58 20 94 C13.4 94 6.8 94 0 94 C0 62.98 0 31.96 0 0 Z " fill="#221F23" transform="translate(306,154)"/>
<path d="M0 0 C7.26 0 14.52 0 22 0 C22 11.88 22 23.76 22 36 C38.20960472 37.80163691 38.20960472 37.80163691 53.58642578 33.23144531 C59.1718347 27.33120124 62.7613167 19.92331151 66.09814453 12.58496094 C70.7349715 2.46784819 70.7349715 2.46784819 75 0 C83.52588366 -1.79085695 92.40389526 -0.91838726 101 0 C96.20487794 7.67125875 91.19314384 15.15580347 86 22.5625 C85.32710938 23.52607422 84.65421875 24.48964844 83.9609375 25.48242188 C83.29320313 26.43826172 82.62546875 27.39410156 81.9375 28.37890625 C81.2878125 29.31492676 80.638125 30.25094727 79.96875 31.21533203 C78.64525316 33.08733166 77.29021444 34.93738704 75.90625 36.76513672 C75.2565625 37.63541504 74.606875 38.50569336 73.9375 39.40234375 C73.34839844 40.16925537 72.75929688 40.93616699 72.15234375 41.72631836 C70.7742234 43.95984826 70.7742234 43.95984826 71.19067383 46.57275391 C72.41299399 50.23860822 74.54100671 53.26121438 76.6875 56.4375 C77.68465039 57.94461393 78.68068672 59.45246537 79.67578125 60.9609375 C80.21025879 61.76756836 80.74473633 62.57419922 81.29541016 63.40527344 C84.37378096 68.0911693 87.37079416 72.82885347 90.375 77.5625 C90.95725342 78.47765381 91.53950684 79.39280762 92.1394043 80.33569336 C93.24565879 82.07554878 94.3500003 83.81662246 95.45214844 85.55908203 C96.46945144 87.16333999 97.49336172 88.76343065 98.52441406 90.35888672 C99.21229004 91.43227295 99.21229004 91.43227295 99.9140625 92.52734375 C100.31834473 93.1524585 100.72262695 93.77757324 101.13916016 94.42163086 C102 96 102 96 102 98 C93.43755308 99.23734782 84.43830943 100.37621289 76 98 C70.42286504 93.83005313 68.00503677 87.07791064 65.32714844 80.85400391 C63.10172556 76.06828032 60.16093571 71.7652149 57.25 67.375 C56.22815989 65.803503 55.21197178 64.22830718 54.203125 62.6484375 C53.77676758 61.99020996 53.35041016 61.33198242 52.91113281 60.65380859 C52 59 52 59 52 57 C42.1 57 32.2 57 22 57 C22 70.53 22 84.06 22 98 C14.74 98 7.48 98 0 98 C0 65.66 0 33.32 0 0 Z " fill="#08B9BE" transform="translate(40,38)"/>
<path d="M0 0 C5.94 0 11.88 0 18 0 C18 0.99 18 1.98 18 3 C21.63 3 25.26 3 29 3 C29 5.31 29 7.62 29 10 C27.68 10 26.36 10 25 10 C25 11.32 25 12.64 25 14 C26.32 14 27.64 14 29 14 C29 15.32 29 16.64 29 18 C28.01 18 27.02 18 26 18 C26 18.99 26 19.98 26 21 C26.99 21 27.98 21 29 21 C29 23.64 29 26.28 29 29 C27.68 29 26.36 29 25 29 C25 26.36 25 23.72 25 21 C24.01 21 23.02 21 22 21 C22 24.63 22 28.26 22 32 C20.68 32 19.36 32 18 32 C18 32.99 18 33.98 18 35 C20.31 35 22.62 35 25 35 C25 33.68 25 32.36 25 31 C26.32 31 27.64 31 29 31 C29 33.31 29 35.62 29 38 C31.31 38 33.62 38 36 38 C36 36.02 36 34.04 36 32 C34.68 32 33.36 32 32 32 C32 30.68 32 29.36 32 28 C37.94 28 43.88 28 50 28 C50 28.99 50 29.98 50 31 C51.32 31 52.64 31 54 31 C54 32.32 54 33.64 54 35 C54.99 35 55.98 35 57 35 C57 38.63 57 42.26 57 46 C56.01 46 55.02 46 54 46 C54 46.99 54 47.98 54 49 C54.99 49 55.98 49 57 49 C57 51.31 57 53.62 57 56 C56.01 56 55.02 56 54 56 C54 55.01 54 54.02 54 53 C52.68 53 51.36 53 50 53 C50 50.69 50 48.38 50 46 C49.01 46 48.02 46 47 46 C47 44.68 47 43.36 47 42 C49.31 42 51.62 42 54 42 C54 41.01 54 40.02 54 39 C52.68 39 51.36 39 50 39 C50 36.69 50 34.38 50 32 C46.7 32 43.4 32 40 32 C40 32.99 40 33.98 40 35 C42.31 35 44.62 35 47 35 C47 36.32 47 37.64 47 39 C45.68 39 44.36 39 43 39 C43 41.31 43 43.62 43 46 C43.99 46 44.98 46 46 46 C46 48.31 46 50.62 46 53 C45.01 53 44.02 53 43 53 C43 55.31 43 57.62 43 60 C43.99 60 44.98 60 46 60 C46 58.68 46 57.36 46 56 C47.32 56 48.64 56 50 56 C50 57.32 50 58.64 50 60 C49.01 60 48.02 60 47 60 C47 60.99 47 61.98 47 63 C50.63 63 54.26 63 58 63 C58 64.32 58 65.64 58 67 C54.04 67 50.08 67 46 67 C46 67.99 46 68.98 46 70 C45.01 70 44.02 70 43 70 C43 71.32 43 72.64 43 74 C44.32 74 45.64 74 47 74 C47 73.01 47 72.02 47 71 C50.3 71 53.6 71 57 71 C57 76.61 57 82.22 57 88 C47.76 88 38.52 88 29 88 C29 87.01 29 86.02 29 85 C27.68 85 26.36 85 25 85 C25 83.68 25 82.36 25 81 C22.69 81 20.38 81 18 81 C18 81.99 18 82.98 18 84 C19.32 84 20.64 84 22 84 C22 85.32 22 86.64 22 88 C20.68 88 19.36 88 18 88 C18 87.01 18 86.02 18 85 C17.01 85 16.02 85 15 85 C15 85.99 15 86.98 15 88 C13.68 88 12.36 88 11 88 C11 85.69 11 83.38 11 81 C12.32 81 13.64 81 15 81 C15 80.01 15 79.02 15 78 C13.68 78 12.36 78 11 78 C11 76.68 11 75.36 11 74 C10.01 74 9.02 74 8 74 C8 72.68 8 71.36 8 70 C6.68 70 5.36 70 4 70 C4 69.01 4 68.02 4 67 C4.99 67 5.98 67 7 67 C7 66.01 7 65.02 7 64 C3.7 64 0.4 64 -3 64 C-3 62.68 -3 61.36 -3 60 C-0.69 60 1.62 60 4 60 C4 57.69 4 55.38 4 53 C5.32 53 6.64 53 8 53 C8 56.3 8 59.6 8 63 C9.98 63 11.96 63 14 63 C14 62.01 14 61.02 14 60 C13.01 60 12.02 60 11 60 C11 57.69 11 55.38 11 53 C12.32 53 13.64 53 15 53 C15 53.99 15 54.98 15 56 C15.99 56 16.98 56 18 56 C18 53.69 18 51.38 18 49 C15.69 49 13.38 49 11 49 C11 48.01 11 47.02 11 46 C9.68 46 8.36 46 7 46 C7 44.68 7 43.36 7 42 C6.01 42 5.02 42 4 42 C4 39.69 4 37.38 4 35 C5.32 35 6.64 35 8 35 C8 34.01 8 33.02 8 32 C8.99 32 9.98 32 11 32 C11 32.99 11 33.98 11 35 C12.32 35 13.64 35 15 35 C15 33.68 15 32.36 15 31 C13.68 31 12.36 31 11 31 C11 30.01 11 29.02 11 28 C13.31 28 15.62 28 18 28 C18 25.69 18 23.38 18 21 C17.01 21 16.02 21 15 21 C15 22.32 15 23.64 15 25 C13.68 25 12.36 25 11 25 C11 23.68 11 22.36 11 21 C10.01 21 9.02 21 8 21 C8 22.32 8 23.64 8 25 C6.68 25 5.36 25 4 25 C4 25.99 4 26.98 4 28 C4.99 28 5.98 28 7 28 C7 28.99 7 29.98 7 31 C5.02 31 3.04 31 1 31 C1 30.01 1 29.02 1 28 C-0.32 28 -1.64 28 -3 28 C-3 20.74 -3 13.48 -3 6 C-2.01 6 -1.02 6 0 6 C0 4.02 0 2.04 0 0 Z " fill="#0E0E0E" transform="translate(72,159)"/>
<path d="M0 0 C6.58368438 4.51062113 11.51811635 10.34312491 14 18 C14.90192124 29.5609904 14.98593783 40.55833089 7.3125 49.875 C1.06785347 56.38415274 -5.75342866 59.09060803 -14.6875 59.3125 C-23.47701924 59.20570147 -29.88072709 56.06076344 -36.203125 50.00390625 C-43.50665398 41.85888372 -43.93301667 33.27660723 -43.48046875 22.73828125 C-42.82407218 14.29440894 -39.14967843 8.12728812 -32.93359375 2.47265625 C-23.36226874 -4.81701956 -10.77191265 -5.15020739 0 0 Z " fill="#FDFDFD" transform="translate(260,173)"/>
<path d="M0 0 C5.2658008 -0.06915205 10.53000412 -0.12879947 15.79589844 -0.16479492 C17.58436443 -0.17981184 19.37279403 -0.20023158 21.16113281 -0.22631836 C23.74293031 -0.26301615 26.32423779 -0.27979745 28.90625 -0.29296875 C29.69616333 -0.30845261 30.48607666 -0.32393646 31.29992676 -0.33988953 C37.95258638 -0.34187253 43.14547091 1.16041459 48.8125 4.8125 C53.1691227 9.1691227 54.21271583 12.94581299 54.4375 19 C54.2912735 24.13700065 53.64517039 27.16297854 50 31 C45.68306367 34.25972743 42.31873535 36.13021149 36.89575195 36.11352539 C35.6648156 36.11341209 35.6648156 36.11341209 34.40901184 36.11329651 C33.0870002 36.10555458 33.0870002 36.10555458 31.73828125 36.09765625 C30.83248825 36.0962413 29.92669525 36.09482635 28.99345398 36.09336853 C26.09976909 36.08777001 23.20616151 36.07521781 20.3125 36.0625 C18.35091258 36.05748481 16.38932394 36.05292193 14.42773438 36.04882812 C9.61843582 36.03865187 4.80930447 36.01907613 0 36 C0 24.12 0 12.24 0 0 Z " fill="#FAFBFC" transform="translate(441,58)"/>
<path d="M0 0 C5.94 0 11.88 0 18 0 C18 0.99 18 1.98 18 3 C21.63 3 25.26 3 29 3 C29 5.31 29 7.62 29 10 C27.68 10 26.36 10 25 10 C25 11.32 25 12.64 25 14 C26.32 14 27.64 14 29 14 C29 15.32 29 16.64 29 18 C28.01 18 27.02 18 26 18 C26 18.99 26 19.98 26 21 C26.99 21 27.98 21 29 21 C29 23.64 29 26.28 29 29 C27.68 29 26.36 29 25 29 C25 26.36 25 23.72 25 21 C24.01 21 23.02 21 22 21 C22 24.63 22 28.26 22 32 C20.68 32 19.36 32 18 32 C18 32.99 18 33.98 18 35 C20.64 35 23.28 35 26 35 C26 34.01 26 33.02 26 32 C26.66 32 27.32 32 28 32 C28 34.31 28 36.62 28 39 C30.64 39 33.28 39 36 39 C36 42.3 36 45.6 36 49 C34.68 49 33.36 49 32 49 C32 50.32 32 51.64 32 53 C33.32 53 34.64 53 36 53 C36 53.99 36 54.98 36 56 C33.69 56 31.38 56 29 56 C29 52.7 29 49.4 29 46 C27.68 46 26.36 46 25 46 C25 46.99 25 47.98 25 49 C20.38 49 15.76 49 11 49 C11 48.01 11 47.02 11 46 C9.68 46 8.36 46 7 46 C7 44.68 7 43.36 7 42 C6.01 42 5.02 42 4 42 C4 39.69 4 37.38 4 35 C5.32 35 6.64 35 8 35 C8 34.01 8 33.02 8 32 C8.99 32 9.98 32 11 32 C11 32.99 11 33.98 11 35 C12.32 35 13.64 35 15 35 C15 33.68 15 32.36 15 31 C13.68 31 12.36 31 11 31 C11 30.01 11 29.02 11 28 C13.31 28 15.62 28 18 28 C18 25.69 18 23.38 18 21 C17.01 21 16.02 21 15 21 C15 22.32 15 23.64 15 25 C13.68 25 12.36 25 11 25 C11 23.68 11 22.36 11 21 C10.01 21 9.02 21 8 21 C8 22.32 8 23.64 8 25 C6.68 25 5.36 25 4 25 C4 25.99 4 26.98 4 28 C4.99 28 5.98 28 7 28 C7 28.99 7 29.98 7 31 C5.02 31 3.04 31 1 31 C1 30.01 1 29.02 1 28 C-0.32 28 -1.64 28 -3 28 C-3 20.74 -3 13.48 -3 6 C-2.01 6 -1.02 6 0 6 C0 4.02 0 2.04 0 0 Z " fill="#5D5D5D" transform="translate(72,159)"/>
<path d="M0 0 C6.72646057 -0.06895005 13.45168999 -0.12866185 20.17822266 -0.16479492 C22.46537435 -0.17986116 24.75249725 -0.20031797 27.03955078 -0.22631836 C30.33112707 -0.26279606 33.62232062 -0.27974834 36.9140625 -0.29296875 C37.93303619 -0.30845261 38.95200989 -0.32393646 40.00186157 -0.33988953 C45.42697137 -0.34116932 49.33650215 -0.1082171 54 3 C56.60232515 5.93810905 57.25019085 8.16677533 57.0625 12 C56.81324065 15.17006762 55.83860532 16.17947169 53.66333008 18.59838867 C49.12647265 22.25295688 44.04657948 21.62353989 38.4765625 21.48828125 C36.82459366 21.47766914 36.82459366 21.47766914 35.13925171 21.46684265 C31.63380005 21.43893226 28.12996605 21.37619606 24.625 21.3125 C22.24351271 21.28741297 19.86200029 21.26460052 17.48046875 21.24414062 C11.65302586 21.18911589 5.82678687 21.10286289 0 21 C0 14.07 0 7.14 0 0 Z " fill="#FCF9F9" transform="translate(218,95)"/>
<path d="M0 0 C6.17467586 -0.09898364 12.34888843 -0.1715236 18.52416992 -0.21972656 C20.62418667 -0.23982397 22.72414758 -0.26710666 24.82397461 -0.30175781 C27.84502958 -0.3503577 30.86534377 -0.37298762 33.88671875 -0.390625 C35.29167854 -0.42159271 35.29167854 -0.42159271 36.72502136 -0.45318604 C41.01546292 -0.45465815 43.35016293 -0.40211027 47.06958008 1.89941406 C49.33668759 4.36636652 49.92248703 5.43157158 50.375 8.75 C49.97296915 12.23426732 49.05274472 14.11028441 46.73745728 16.73858643 C43.1723935 19.32686292 38.89843238 18.72261556 34.66796875 18.5859375 C33.67622147 18.57744781 32.68447418 18.56895813 31.66267395 18.56021118 C28.5031654 18.52669358 25.34623361 18.45141516 22.1875 18.375 C20.04235463 18.34489838 17.89716916 18.31752292 15.75195312 18.29296875 C10.5003132 18.22690713 5.25059305 18.12339447 0 18 C0 12.06 0 6.12 0 0 Z " fill="#FDFBFB" transform="translate(218,58)"/>
<path d="M0 0 C0.99 0 1.98 0 3 0 C3 2.31 3 4.62 3 7 C4.32 7 5.64 7 7 7 C7 4.69 7 2.38 7 0 C12.94 0 18.88 0 25 0 C25 1.32 25 2.64 25 4 C20.05 4 15.1 4 10 4 C10 4.99 10 5.98 10 7 C14.62 7 19.24 7 24 7 C24 7.99 24 8.98 24 10 C23.01 10 22.02 10 21 10 C21 11.32 21 12.64 21 14 C22.32 14 23.64 14 25 14 C25 13.01 25 12.02 25 11 C25.99 11 26.98 11 28 11 C28 8.69 28 6.38 28 4 C28.99 4 29.98 4 31 4 C31 8.62 31 13.24 31 18 C27.7 18 24.4 18 21 18 C21 18.99 21 19.98 21 21 C21.99 21 22.98 21 24 21 C24 22.32 24 23.64 24 25 C23.01 25 22.02 25 21 25 C21 25.99 21 26.98 21 28 C22.32 28 23.64 28 25 28 C25 27.01 25 26.02 25 25 C25.99 25 26.98 25 28 25 C28 27.31 28 29.62 28 32 C25.69 32 23.38 32 21 32 C21 31.01 21 30.02 21 29 C19.68 29 18.36 29 17 29 C17 26.36 17 23.72 17 21 C16.01 21 15.02 21 14 21 C14 22.32 14 23.64 14 25 C11.69 25 9.38 25 7 25 C7 23.68 7 22.36 7 21 C5.68 21 4.36 21 3 21 C3 24.63 3 28.26 3 32 C2.01 32 1.02 32 0 32 C0 21.44 0 10.88 0 0 Z " fill="#171717" transform="translate(41,187)"/>
<path d="M0 0 C7.92 0 15.84 0 24 0 C24 7.92 24 15.84 24 24 C16.08 24 8.16 24 0 24 C0 16.08 0 8.16 0 0 Z " fill="#F0F0F0" transform="translate(41,223)"/>
<path d="M0 0 C7.92 0 15.84 0 24 0 C24 7.92 24 15.84 24 24 C16.08 24 8.16 24 0 24 C0 16.08 0 8.16 0 0 Z " fill="#F0F0F0" transform="translate(105,159)"/>
<path d="M0 0 C7.92 0 15.84 0 24 0 C24 7.92 24 15.84 24 24 C16.08 24 8.16 24 0 24 C0 16.08 0 8.16 0 0 Z " fill="#F0F0F0" transform="translate(41,159)"/>
<path d="M0 0 C0.99 0 1.98 0 3 0 C3 1.32 3 2.64 3 4 C4.32 4 5.64 4 7 4 C7 2.68 7 1.36 7 0 C7.99 0 8.98 0 10 0 C10 2.31 10 4.62 10 7 C7.69 7 5.38 7 3 7 C3 7.99 3 8.98 3 10 C4.32 10 5.64 10 7 10 C7 11.32 7 12.64 7 14 C5.68 14 4.36 14 3 14 C3 13.01 3 12.02 3 11 C2.01 11 1.02 11 0 11 C0 11.99 0 12.98 0 14 C-1.32 14 -2.64 14 -4 14 C-4 16.31 -4 18.62 -4 21 C-3.01 21 -2.02 21 -1 21 C-1 22.32 -1 23.64 -1 25 C0.32 25 1.64 25 3 25 C3 25.99 3 26.98 3 28 C5.31 28 7.62 28 10 28 C10 30.31 10 32.62 10 35 C9.01 35 8.02 35 7 35 C7 34.01 7 33.02 7 32 C5.68 32 4.36 32 3 32 C3 34.31 3 36.62 3 39 C3.99 39 4.98 39 6 39 C6 39.99 6 40.98 6 42 C4.02 42 2.04 42 0 42 C0 38.7 0 35.4 0 32 C-1.32 32 -2.64 32 -4 32 C-4 34.31 -4 36.62 -4 39 C-6.31 39 -8.62 39 -11 39 C-11 36.69 -11 34.38 -11 32 C-11.99 32 -12.98 32 -14 32 C-14 32.99 -14 33.98 -14 35 C-15.32 35 -16.64 35 -18 35 C-18 34.01 -18 33.02 -18 32 C-17.01 32 -16.02 32 -15 32 C-15 30.68 -15 29.36 -15 28 C-15.99 28 -16.98 28 -18 28 C-18 27.01 -18 26.02 -18 25 C-14.7 25 -11.4 25 -8 25 C-8 20.38 -8 15.76 -8 11 C-8.99 10.67 -9.98 10.34 -11 10 C-10.01 10 -9.02 10 -8 10 C-7.67 9.01 -7.34 8.02 -7 7 C-7 7.99 -7 8.98 -7 10 C-5.02 10 -3.04 10 -1 10 C-1 9.01 -1 8.02 -1 7 C-1.99 7 -2.98 7 -4 7 C-4 6.01 -4 5.02 -4 4 C-2.68 4 -1.36 4 0 4 C0 2.68 0 1.36 0 0 Z " fill="#969696" transform="translate(80,180)"/>
<path d="M0 0 C5.94 0 11.88 0 18 0 C18 0.99 18 1.98 18 3 C19.32 3 20.64 3 22 3 C22 4.32 22 5.64 22 7 C22.99 7 23.98 7 25 7 C25 10.63 25 14.26 25 18 C24.01 18 23.02 18 22 18 C22 18.99 22 19.98 22 21 C22.99 21 23.98 21 25 21 C25 23.31 25 25.62 25 28 C24.01 28 23.02 28 22 28 C22 27.01 22 26.02 22 25 C20.68 25 19.36 25 18 25 C18 22.69 18 20.38 18 18 C17.01 18 16.02 18 15 18 C15 16.68 15 15.36 15 14 C17.31 14 19.62 14 22 14 C22 13.01 22 12.02 22 11 C20.68 11 19.36 11 18 11 C18 8.69 18 6.38 18 4 C14.7 4 11.4 4 8 4 C8 4.99 8 5.98 8 7 C10.31 7 12.62 7 15 7 C15 8.32 15 9.64 15 11 C13.68 11 12.36 11 11 11 C11 14.3 11 17.6 11 21 C9.68 21 8.36 21 7 21 C7 20.01 7 19.02 7 18 C6.01 18 5.02 18 4 18 C4 15.69 4 13.38 4 11 C1.36 11 -1.28 11 -4 11 C-4 8.69 -4 6.38 -4 4 C-4.66 4 -5.32 4 -6 4 C-6.33 4.99 -6.66 5.98 -7 7 C-7 5.68 -7 4.36 -7 3 C-5.68 3 -4.36 3 -3 3 C-3 5.31 -3 7.62 -3 10 C-0.69 10 1.62 10 4 10 C4 8.02 4 6.04 4 4 C2.68 4 1.36 4 0 4 C0 2.68 0 1.36 0 0 Z " fill="#262626" transform="translate(104,187)"/>
<path d="M0 0 C0.99 0 1.98 0 3 0 C3 4.62 3 9.24 3 14 C-0.3 14 -3.6 14 -7 14 C-7 14.99 -7 15.98 -7 17 C-6.01 17 -5.02 17 -4 17 C-4 18.32 -4 19.64 -4 21 C-4.99 21 -5.98 21 -7 21 C-7 21.99 -7 22.98 -7 24 C-5.68 24 -4.36 24 -3 24 C-3 23.01 -3 22.02 -3 21 C-2.01 21 -1.02 21 0 21 C0 23.31 0 25.62 0 28 C-2.31 28 -4.62 28 -7 28 C-7 27.01 -7 26.02 -7 25 C-8.32 25 -9.64 25 -11 25 C-11 22.36 -11 19.72 -11 17 C-11.99 17 -12.98 17 -14 17 C-14 14.69 -14 12.38 -14 10 C-13.01 10 -12.02 10 -11 10 C-11 9.01 -11 8.02 -11 7 C-13.31 7 -15.62 7 -18 7 C-18 5.68 -18 4.36 -18 3 C-13.38 3 -8.76 3 -4 3 C-4 3.99 -4 4.98 -4 6 C-4.99 6 -5.98 6 -7 6 C-7 7.32 -7 8.64 -7 10 C-5.68 10 -4.36 10 -3 10 C-3 9.01 -3 8.02 -3 7 C-2.01 7 -1.02 7 0 7 C0 4.69 0 2.38 0 0 Z " fill="#131313" transform="translate(69,191)"/>
<path d="M0 0 C7.92 0 15.84 0 24 0 C24 7.92 24 15.84 24 24 C16.08 24 8.16 24 0 24 C0 16.08 0 8.16 0 0 Z M3 3 C3 8.94 3 14.88 3 21 C8.94 21 14.88 21 21 21 C21 15.06 21 9.12 21 3 C15.06 3 9.12 3 3 3 Z " fill="#000000" transform="translate(41,223)"/>
<path d="M0 0 C7.92 0 15.84 0 24 0 C24 7.92 24 15.84 24 24 C16.08 24 8.16 24 0 24 C0 16.08 0 8.16 0 0 Z M3 3 C3 8.94 3 14.88 3 21 C8.94 21 14.88 21 21 21 C21 15.06 21 9.12 21 3 C15.06 3 9.12 3 3 3 Z " fill="#000000" transform="translate(105,159)"/>
<path d="M0 0 C7.92 0 15.84 0 24 0 C24 7.92 24 15.84 24 24 C16.08 24 8.16 24 0 24 C0 16.08 0 8.16 0 0 Z M3 3 C3 8.94 3 14.88 3 21 C8.94 21 14.88 21 21 21 C21 15.06 21 9.12 21 3 C15.06 3 9.12 3 3 3 Z " fill="#000000" transform="translate(41,159)"/>
<path d="M0 0 C5.61 0 11.22 0 17 0 C17 0.99 17 1.98 17 3 C20.63 3 24.26 3 28 3 C28 5.31 28 7.62 28 10 C26.68 10 25.36 10 24 10 C24 11.32 24 12.64 24 14 C20.7 14 17.4 14 14 14 C14 12.68 14 11.36 14 10 C11.69 10 9.38 10 7 10 C7 7.69 7 5.38 7 3 C5.68 3 4.36 3 3 3 C3 4.32 3 5.64 3 7 C2.01 7 1.02 7 0 7 C0 4.69 0 2.38 0 0 Z " fill="#181818" transform="translate(73,159)"/>
<path d="M0 0 C0.99 0 1.98 0 3 0 C3 1.32 3 2.64 3 4 C4.32 4 5.64 4 7 4 C7 4.99 7 5.98 7 7 C8.32 7 9.64 7 11 7 C11 10.63 11 14.26 11 18 C8.69 18 6.38 18 4 18 C4 18.99 4 19.98 4 21 C2.68 21 1.36 21 0 21 C0 19.68 0 18.36 0 17 C0.99 17 1.98 17 3 17 C3 16.01 3 15.02 3 14 C2.01 14 1.02 14 0 14 C0 9.38 0 4.76 0 0 Z " fill="#202020" transform="translate(69,226)"/>
<path d="M0 0 C2.875 1.0625 2.875 1.0625 4.8125 2.6875 C6.35600034 6.13767724 5.80833407 8.46249716 4.875 12.0625 C1.40576119 14.37532587 -0.04705575 14.48728586 -4.125 14.0625 C-6.72943772 12.44595245 -7.11219689 11.09930893 -8.125 8.1875 C-8.125 5.0625 -8.125 5.0625 -6.0625 2.125 C-3.125 0.0625 -3.125 0.0625 0 0 Z " fill="#D6D6D5" transform="translate(524.125,23.9375)"/>
<path d="M0 0 C5.94 0 11.88 0 18 0 C18 1.32 18 2.64 18 4 C13.05 4 8.1 4 3 4 C3 6.31 3 8.62 3 11 C5.31 11 7.62 11 10 11 C10 11.99 10 12.98 10 14 C9.01 14 8.02 14 7 14 C7 16.31 7 18.62 7 21 C5.68 21 4.36 21 3 21 C3 18.69 3 16.38 3 14 C2.01 14 1.02 14 0 14 C0 9.38 0 4.76 0 0 Z " fill="#1A1A1A" transform="translate(48,187)"/>
<path d="M0 0 C3.96 0 7.92 0 12 0 C12 3.96 12 7.92 12 12 C8.04 12 4.08 12 0 12 C0 8.04 0 4.08 0 0 Z " fill="#000000" transform="translate(47,229)"/>
<path d="M0 0 C3.96 0 7.92 0 12 0 C12 3.96 12 7.92 12 12 C8.04 12 4.08 12 0 12 C0 8.04 0 4.08 0 0 Z " fill="#000000" transform="translate(47,165)"/>
<path d="M0 0 C0.99 0 1.98 0 3 0 C3 0.99 3 1.98 3 3 C4.32 3 5.64 3 7 3 C7 6.63 7 10.26 7 14 C6.01 14 5.02 14 4 14 C4 14.99 4 15.98 4 17 C4.99 17 5.98 17 7 17 C7 19.31 7 21.62 7 24 C6.01 24 5.02 24 4 24 C4 23.01 4 22.02 4 21 C2.68 21 1.36 21 0 21 C0 18.69 0 16.38 0 14 C-0.99 14 -1.98 14 -3 14 C-3 12.68 -3 11.36 -3 10 C-0.69 10 1.62 10 4 10 C4 9.01 4 8.02 4 7 C2.68 7 1.36 7 0 7 C0 4.69 0 2.38 0 0 Z " fill="#101010" transform="translate(122,191)"/>
<path d="M0 0 C3.63 0 7.26 0 11 0 C11 3.96 11 7.92 11 12 C7.37 12 3.74 12 0 12 C0 8.04 0 4.08 0 0 Z " fill="#000000" transform="translate(111,165)"/>
<path d="M0 0 C0.99 0 1.98 0 3 0 C3 0.99 3 1.98 3 3 C4.32 3 5.64 3 7 3 C7 5.31 7 7.62 7 10 C5.68 10 4.36 10 3 10 C3.33 12.31 3.66 14.62 4 17 C4.99 17.33 5.98 17.66 7 18 C7 18.99 7 19.98 7 21 C7.99 21 8.98 21 10 21 C10 21.99 10 22.98 10 24 C8.02 24 6.04 24 4 24 C4 23.01 4 22.02 4 21 C2.68 21 1.36 21 0 21 C0 14.07 0 7.14 0 0 Z " fill="#020202" transform="translate(69,166)"/>
<path d="M0 0 C3.63 0 7.26 0 11 0 C11 3.63 11 7.26 11 11 C7.37 11 3.74 11 0 11 C0 7.37 0 3.74 0 0 Z " fill="#C7C7C7" transform="translate(101,219)"/>
<path d="M0 0 C1.32 0 2.64 0 4 0 C4 0.99 4 1.98 4 3 C6.31 3 8.62 3 11 3 C11 5.31 11 7.62 11 10 C10.01 10 9.02 10 8 10 C8 9.01 8 8.02 8 7 C6.68 7 5.36 7 4 7 C4 9.31 4 11.62 4 14 C4.99 14 5.98 14 7 14 C7 14.99 7 15.98 7 17 C5.02 17 3.04 17 1 17 C1 13.7 1 10.4 1 7 C-0.32 7 -1.64 7 -3 7 C-3 5.68 -3 4.36 -3 3 C-2.01 3 -1.02 3 0 3 C0 2.01 0 1.02 0 0 Z " fill="#F1F1F1" transform="translate(79,205)"/>
<path d="M0 0 C3.3 0 6.6 0 10 0 C10 2.31 10 4.62 10 7 C11.32 7 12.64 7 14 7 C14 7.99 14 8.98 14 10 C11.69 10 9.38 10 7 10 C7 13.63 7 17.26 7 21 C6.67 21 6.34 21 6 21 C6 18.69 6 16.38 6 14 C5.01 14 4.02 14 3 14 C3 11.69 3 9.38 3 7 C4.32 7 5.64 7 7 7 C7 5.68 7 4.36 7 3 C4.69 3 2.38 3 0 3 C0 2.01 0 1.02 0 0 Z " fill="#EBEBEB" transform="translate(112,191)"/>
<path d="M0 0 C2.31 0 4.62 0 7 0 C7 0.99 7 1.98 7 3 C8.32 3 9.64 3 11 3 C11 5.64 11 8.28 11 11 C9.68 11 8.36 11 7 11 C7 9.68 7 8.36 7 7 C4.69 7 2.38 7 0 7 C0 4.69 0 2.38 0 0 Z " fill="#E9E9E9" transform="translate(83,226)"/>
<path d="M0 0 C0.99 0 1.98 0 3 0 C3 1.32 3 2.64 3 4 C4.32 4 5.64 4 7 4 C7 2.68 7 1.36 7 0 C7.99 0 8.98 0 10 0 C10 2.31 10 4.62 10 7 C7.69 7 5.38 7 3 7 C3 7.99 3 8.98 3 10 C2.01 10 1.02 10 0 10 C0 9.01 0 8.02 0 7 C-1.32 7 -2.64 7 -4 7 C-4 6.01 -4 5.02 -4 4 C-2.68 4 -1.36 4 0 4 C0 2.68 0 1.36 0 0 Z " fill="#FEFEFE" transform="translate(80,180)"/>
<path d="M0 0 C3.63 0 7.26 0 11 0 C11 1.32 11 2.64 11 4 C10.01 4 9.02 4 8 4 C8 5.32 8 6.64 8 8 C5.66705225 8.04241723 3.33297433 8.04092937 1 8 C0 7 0 7 -0.0625 3.4375 C-0.041875 2.303125 -0.02125 1.16875 0 0 Z " fill="#3A3A3A" transform="translate(72,176)"/>
<path d="M0 0 C0.99 0 1.98 0 3 0 C3 1.32 3 2.64 3 4 C5.31 4 7.62 4 10 4 C10 4.99 10 5.98 10 7 C9.01 7 8.02 7 7 7 C7 9.31 7 11.62 7 14 C5.68 14 4.36 14 3 14 C3 11.69 3 9.38 3 7 C2.01 7 1.02 7 0 7 C0 4.69 0 2.38 0 0 Z " fill="#F2F2F2" transform="translate(48,194)"/>
<path d="M0 0 C0.99 0 1.98 0 3 0 C3 1.32 3 2.64 3 4 C4.32 4 5.64 4 7 4 C7 4.99 7 5.98 7 7 C1.39 7 -4.22 7 -10 7 C-10 6.01 -10 5.02 -10 4 C-6.7 4 -3.4 4 0 4 C0 2.68 0 1.36 0 0 Z " fill="#FDFDFD" transform="translate(108,233)"/>
<path d="M0 0 C1.32 0 2.64 0 4 0 C4 1.32 4 2.64 4 4 C3.01 4 2.02 4 1 4 C1 4.99 1 5.98 1 7 C1.99 7 2.98 7 4 7 C4 9.64 4 12.28 4 15 C2.68 15 1.36 15 0 15 C0 12.36 0 9.72 0 7 C-0.99 7 -1.98 7 -3 7 C-3 5.68 -3 4.36 -3 3 C-2.01 3 -1.02 3 0 3 C0 2.01 0 1.02 0 0 Z " fill="#000000" transform="translate(97,173)"/>
<path d="M0 0 C3.3 0 6.6 0 10 0 C10 0.99 10 1.98 10 3 C9.01 3 8.02 3 7 3 C7 4.32 7 5.64 7 7 C6.01 7 5.02 7 4 7 C4 7.99 4 8.98 4 10 C2.68 10 1.36 10 0 10 C0 9.01 0 8.02 0 7 C0.99 7 1.98 7 3 7 C3 5.68 3 4.36 3 3 C2.01 3 1.02 3 0 3 C0 2.01 0 1.02 0 0 Z " fill="#EDEDED" transform="translate(62,205)"/>
<path d="M0 0 C0.99 0 1.98 0 3 0 C3 0.99 3 1.98 3 3 C4.32 3 5.64 3 7 3 C7 4.32 7 5.64 7 7 C5.68 7 4.36 7 3 7 C3 7.99 3 8.98 3 10 C0.69 10 -1.62 10 -4 10 C-4 9.01 -4 8.02 -4 7 C-2.68 7 -1.36 7 0 7 C0 4.69 0 2.38 0 0 Z " fill="#F2F2F2" transform="translate(94,198)"/>
<path d="M0 0 C1.98 0 3.96 0 6 0 C6 0.99 6 1.98 6 3 C5.01 3 4.02 3 3 3 C3 5.31 3 7.62 3 10 C3.99 10 4.98 10 6 10 C6 10.99 6 11.98 6 13 C4.02 13 2.04 13 0 13 C0 8.71 0 4.42 0 0 Z " fill="#FCFCFC" transform="translate(73,191)"/>
<path d="M0 0 C2.31 0 4.62 0 7 0 C7 0.99 7 1.98 7 3 C5.68 3 4.36 3 3 3 C3 4.32 3 5.64 3 7 C4.32 7 5.64 7 7 7 C7 7.99 7 8.98 7 10 C4.69 10 2.38 10 0 10 C0 6.7 0 3.4 0 0 Z " fill="#FDFDFD" transform="translate(101,205)"/>
<path d="M0 0 C2.31 0 4.62 0 7 0 C7 0.99 7 1.98 7 3 C6.01 3 5.02 3 4 3 C4 3.99 4 4.98 4 6 C5.32 6 6.64 6 8 6 C8 7.32 8 8.64 8 10 C6.68 10 5.36 10 4 10 C4 9.01 4 8.02 4 7 C2.68 7 1.36 7 0 7 C0 4.69 0 2.38 0 0 Z " fill="#ECECEC" transform="translate(90,216)"/>
<path d="M0 0 C0.99 0 1.98 0 3 0 C3 3.3 3 6.6 3 10 C-0.3 10 -3.6 10 -7 10 C-7 9.01 -7 8.02 -7 7 C-4.69 7 -2.38 7 0 7 C0 4.69 0 2.38 0 0 Z " fill="#010101" transform="translate(76,212)"/>
<path d="M0 0 C2.31 0 4.62 0 7 0 C7 2.31 7 4.62 7 7 C4.69 7 2.38 7 0 7 C0 4.69 0 2.38 0 0 Z " fill="#FBFBFB" transform="translate(69,212)"/>
<path d="M0 0 C3.96 0 7.92 0 12 0 C12 1.32 12 2.64 12 4 C8.04 4 4.08 4 0 4 C0 2.68 0 1.36 0 0 Z " fill="#000000" transform="translate(118,222)"/>
<path d="M0 0 C1.98 0 3.96 0 6 0 C6 0.99 6 1.98 6 3 C5.01 3 4.02 3 3 3 C3 4.32 3 5.64 3 7 C0.69 7 -1.62 7 -4 7 C-4 5.68 -4 4.36 -4 3 C-2.68 3 -1.36 3 0 3 C0 2.01 0 1.02 0 0 Z " fill="#0B0B0B" transform="translate(73,205)"/>
<path d="M0 0 C3.3 0 6.6 0 10 0 C10 0.99 10 1.98 10 3 C9.01 3 8.02 3 7 3 C7 4.32 7 5.64 7 7 C5.68 7 4.36 7 3 7 C3 5.68 3 4.36 3 3 C2.01 3 1.02 3 0 3 C0 2.01 0 1.02 0 0 Z " fill="#F3F3F3" transform="translate(80,198)"/>
<path d="M0 0 C3.25696479 0.41755959 4.63443291 0.63443291 7 3 C6.8125 6 6.8125 6 6 9 C3 11 3 11 0 11 C0.33 8.69 0.66 6.38 1 4 C1.66 4.33 2.32 4.66 3 5 C3 4.34 3 3.68 3 3 C1.68 2.34 0.36 1.68 -1 1 C-0.67 0.67 -0.34 0.34 0 0 Z " fill="#F9FBF9" transform="translate(522,26)"/>
<path d="M0 0 C1.32 0 2.64 0 4 0 C4 2.31 4 4.62 4 7 C1.69 7 -0.62 7 -3 7 C-3 5.68 -3 4.36 -3 3 C-2.01 3 -1.02 3 0 3 C0 2.01 0 1.02 0 0 Z " fill="#DEDEDE" transform="translate(122,237)"/>
<path d="M0 0 C1.32 0 2.64 0 4 0 C4 2.31 4 4.62 4 7 C4.99 7 5.98 7 7 7 C7 7.99 7 8.98 7 10 C5.68 10 4.36 10 3 10 C3 9.01 3 8.02 3 7 C2.01 7 1.02 7 0 7 C0 4.69 0 2.38 0 0 Z " fill="#BBBBBB" transform="translate(108,198)"/>
<path d="M0 0 C0.33 0 0.66 0 1 0 C1 3.3 1 6.6 1 10 C2.98 10 4.96 10 7 10 C7.33 9.01 7.66 8.02 8 7 C8 8.32 8 9.64 8 11 C5.69 11 3.38 11 1 11 C0.67 11.99 0.34 12.98 0 14 C0 13.01 0 12.02 0 11 C-3.3 11 -6.6 11 -10 11 C-10 10.67 -10 10.34 -10 10 C-6.7 10 -3.4 10 0 10 C0 6.7 0 3.4 0 0 Z " fill="#7D7D7D" transform="translate(79,212)"/>
<path d="M0 0 C0.99 0 1.98 0 3 0 C3 2.31 3 4.62 3 7 C0.69 7 -1.62 7 -4 7 C-4 6.01 -4 5.02 -4 4 C-3.01 3.67 -2.02 3.34 -1 3 C-0.67 2.01 -0.34 1.02 0 0 Z " fill="#060606" transform="translate(66,212)"/>
<path d="M0 0 C2.64 0 5.28 0 8 0 C8 1.32 8 2.64 8 4 C5.36 4 2.72 4 0 4 C0 2.68 0 1.36 0 0 Z " fill="#000000" transform="translate(47,215)"/>
<path d="M0 0 C1.32 0 2.64 0 4 0 C4 1.32 4 2.64 4 4 C3.01 4 2.02 4 1 4 C1 5.32 1 6.64 1 8 C-0.32 8 -1.64 8 -3 8 C-3 6.68 -3 5.36 -3 4 C-2.01 4 -1.02 4 0 4 C0 2.68 0 1.36 0 0 Z " fill="#000000" transform="translate(86,176)"/>
<path d="M0 0 C0.33 0.99 0.66 1.98 1 3 C4.3 3 7.6 3 11 3 C11 3.33 11 3.66 11 4 C7.7 4 4.4 4 1 4 C1 4.99 1 5.98 1 7 C-0.32 7 -1.64 7 -3 7 C-3 5.68 -3 4.36 -3 3 C-2.01 3 -1.02 3 0 3 C0 2.01 0 1.02 0 0 Z " fill="#A7A7A7" transform="translate(118,226)"/>
<path d="M0 0 C2.0625 0.4375 2.0625 0.4375 4 1 C4 2.98 4 4.96 4 7 C3.690625 6.360625 3.38125 5.72125 3.0625 5.0625 C2.1654837 3.06389179 2.1654837 3.06389179 1 2 C1 3.65 1 5.3 1 7 C0.34 7 -0.32 7 -1 7 C-1.04254356 5.00045254 -1.04080783 2.99958364 -1 1 C-0.67 0.67 -0.34 0.34 0 0 Z " fill="#CECBCF" transform="translate(522,28)"/>
<path d="M0 0 C0.33 0.99 0.66 1.98 1 3 C3.31 3 5.62 3 8 3 C8 4.32 8 5.64 8 7 C6.68 7 5.36 7 4 7 C4 6.01 4 5.02 4 4 C2.68 4 1.36 4 0 4 C0 2.68 0 1.36 0 0 Z " fill="#ADADAD" transform="translate(72,226)"/>
<path d="M0 0 C0.33 0.99 0.66 1.98 1 3 C1.99 3.33 2.98 3.66 4 4 C3.01 4 2.02 4 1 4 C1 4.99 1 5.98 1 7 C-0.32 7 -1.64 7 -3 7 C-3 5.68 -3 4.36 -3 3 C-2.01 3 -1.02 3 0 3 C0 2.01 0 1.02 0 0 Z " fill="#B3B3B3" transform="translate(65,194)"/>
<path d="M0 0 C2.31 0 4.62 0 7 0 C7 0.99 7 1.98 7 3 C4.69 3 2.38 3 0 3 C0 2.01 0 1.02 0 0 Z " fill="#F6F6F6" transform="translate(87,166)"/>
<path d="M0 0 C2.64 0 5.28 0 8 0 C8 1.32 8 2.64 8 4 C6.68 4 5.36 4 4 4 C4 3.01 4 2.02 4 1 C2.68 0.67 1.36 0.34 0 0 Z " fill="#ABABAB" transform="translate(90,222)"/>
<path d="M0 0 C0.99 0 1.98 0 3 0 C3 1.98 3 3.96 3 6 C2.01 6 1.02 6 0 6 C0 4.02 0 2.04 0 0 Z " fill="#FFFFFF" transform="translate(108,198)"/>
<path d="M0 0 C0.99 0 1.98 0 3 0 C3 1.98 3 3.96 3 6 C2.01 6 1.02 6 0 6 C0 4.02 0 2.04 0 0 Z " fill="#FFFFFF" transform="translate(73,177)"/>
</svg>
